<svg xmlns="http://www.w3.org/2000/svg" viewBox="0 0 480 360" role="img" aria-labelledby="title desc">
  <title id="title">Simple calculator illustration</title>
  <desc id="desc">A compact calculator with colorful operation keys.</desc>
  <defs>
    <linearGradient id="body" x1="110" y1="40" x2="360" y2="320" gradientUnits="userSpaceOnUse">
      <stop offset="0" stop-color="#293746" />
      <stop offset="1" stop-color="#141c25" />
    </linearGradient>
    <linearGradient id="screen" x1="150" y1="72" x2="310" y2="132" gradientUnits="userSpaceOnUse">
      <stop offset="0" stop-color="#dff7f2" />
      <stop offset="1" stop-color="#9ee6da" />
    </linearGradient>
  </defs>
  <rect x="86" y="42" width="308" height="276" rx="36" fill="#d6e5e9" />
  <rect x="110" y="30" width="260" height="294" rx="34" fill="url(#body)" />
  <rect x="138" y="62" width="204" height="72" rx="16" fill="url(#screen)" />
  <rect x="174" y="96" width="132" height="12" rx="6" fill="#263745" opacity="0.72" />
  <g fill="#e7edf3">
    <rect x="140" y="158" width="42" height="42" rx="10" />
    <rect x="199" y="158" width="42" height="42" rx="10" />
    <rect x="258" y="158" width="42" height="42" rx="10" />
    <rect x="140" y="216" width="42" height="42" rx="10" />
    <rect x="199" y="216" width="42" height="42" rx="10" />
    <rect x="258" y="216" width="42" height="42" rx="10" />
  </g>
  <g fill="#f5bf4f">
    <rect x="317" y="158" width="42" height="42" rx="10" />
    <rect x="317" y="216" width="42" height="42" rx="10" />
  </g>
  <rect x="140" y="274" width="101" height="28" rx="10" fill="#d7e6e2" />
  <rect x="258" y="274" width="101" height="28" rx="10" fill="#e96f5f" />
  <g fill="#19212a" font-family="Arial, sans-serif" font-size="24" font-weight="700" text-anchor="middle" dominant-baseline="middle">
    <text x="161" y="180">7</text>
    <text x="220" y="180">8</text>
    <text x="279" y="180">9</text>
    <text x="161" y="238">4</text>
    <text x="220" y="238">5</text>
    <text x="279" y="238">6</text>
    <text x="190" y="290">0</text>
    <text x="309" y="290">=</text>
  </g>
  <g fill="#2b2108" font-family="Arial, sans-serif" font-size="28" font-weight="700" text-anchor="middle" dominant-baseline="middle">
    <text x="338" y="179">+</text>
    <text x="338" y="237">x</text>
  </g>
  <path d="M388 82l18 10 18-10-10 18 10 18-18-10-18 10 10-18-10-18z" fill="#67d4c4" />
  <circle cx="82" cy="264" r="18" fill="#e96f5f" opacity="0.9" />
  <circle cx="402" cy="276" r="11" fill="#f5bf4f" />
</svg>
